<svg width="125" height="125" viewBox="0 0 125 125" fill="none" xmlns="http://www.w3.org/2000/svg">
<path d="M104.922 43.0727L113.062 34.9321L105.698 27.5675L96.8021 36.4582C91.3333 33.1769 84.9583 31.2498 78.125 31.2498C58.026 31.2498 41.6667 47.604 41.6667 67.7082C41.6667 87.8123 58.026 104.166 78.125 104.166C98.224 104.166 114.583 87.8123 114.583 67.7082C114.579 58.5729 111.129 49.7754 104.922 43.0727ZM78.125 93.7498C63.7656 93.7498 52.0833 82.0675 52.0833 67.7082C52.0833 53.3488 63.7656 41.6665 78.125 41.6665C92.4844 41.6665 104.167 53.3488 104.167 67.7082C104.167 82.0675 92.4844 93.7498 78.125 93.7498Z" fill="#E2E5EC"/>
<path d="M72.9167 52.0833H83.3333V72.9167H72.9167V52.0833ZM67.7083 15.625H88.5417V26.0417H67.7083V15.625ZM15.625 41.6667H36.4583V52.0833H15.625V41.6667ZM15.625 83.3333H36.4583V93.75H15.625V83.3333ZM10.4167 62.5H31.1979V72.9167H10.4167V62.5Z" fill="#E2E5EC"/>
</svg>
