<svg width="591" height="69" viewBox="0 0 591 69" fill="none" xmlns="http://www.w3.org/2000/svg">
<path d="M17.9447 55.1206C17.5283 55.1206 17.3201 54.9124 17.3201 54.496L17.0362 48.534C17.0362 48.3448 16.9226 48.2501 16.6955 48.2501H8.68945C8.50018 48.2501 8.36769 48.3448 8.29199 48.534L6.53178 54.496C6.41822 54.9124 6.15325 55.1206 5.73685 55.1206H0.740156C0.248057 55.1206 0.0777153 54.8746 0.22913 54.3825L13.0616 15.9987C13.1751 15.5823 13.4401 15.3741 13.8565 15.3741H19.7049C20.1213 15.3741 20.3295 15.5823 20.3295 15.9987L23.7931 54.3825V54.496C23.7931 54.9124 23.566 55.1206 23.1117 55.1206H17.9447ZM9.99541 42.7992C9.95755 42.9885 10.0522 43.0831 10.2793 43.0831H16.3548C16.582 43.0831 16.6955 42.9885 16.6955 42.7992L15.6735 24.8565C15.6735 24.7429 15.6356 24.6862 15.5599 24.6862C15.4842 24.6862 15.4085 24.7429 15.3328 24.8565L9.99541 42.7992ZM27.05 55.1206C26.6336 55.1206 26.4254 54.8935 26.4254 54.4392L31.1382 16.0555C31.1761 15.8662 31.2707 15.7148 31.4221 15.6013C31.5735 15.4498 31.7439 15.3741 31.9331 15.3741H41.302C44.141 15.3741 46.3744 16.188 48.0021 17.8157C49.6676 19.4056 50.5004 21.5822 50.5004 24.3455C50.5004 24.7619 50.4626 25.3865 50.3869 26.2192L48.1724 44.2755C47.756 47.5688 46.4879 50.1996 44.3681 52.168C42.2483 54.1364 39.5985 55.1206 36.4188 55.1206H27.05ZM33.4662 49.1586C33.4662 49.3479 33.5609 49.4425 33.7501 49.4425L37.0434 49.3858C38.2547 49.3858 39.2957 48.8937 40.1663 47.9095C41.037 46.8874 41.6048 45.5436 41.8698 43.878L43.9706 26.6167C44.0085 26.3517 44.0274 25.9732 44.0274 25.4811C44.0274 24.0805 43.7057 23.0017 43.0622 22.2446C42.4565 21.4497 41.5859 21.0522 40.4502 21.0522H37.2137C37.0245 21.0522 36.9298 21.1468 36.9298 21.3361L33.4662 49.1586ZM57.1735 55.1206C56.7571 55.1206 56.5489 54.9124 56.5489 54.496L53.3692 16.1123V15.9987C53.3692 15.5823 53.5774 15.3741 53.9938 15.3741H59.5583C60.0125 15.3741 60.2396 15.5823 60.2396 15.9987L61.432 43.3102C61.4699 43.4238 61.5267 43.4806 61.6024 43.4806C61.6781 43.4806 61.7349 43.4238 61.7727 43.3102L69.6084 15.9987C69.6463 15.5823 69.8923 15.3741 70.3466 15.3741H75.7975C76.2518 15.3741 76.4032 15.6202 76.2518 16.1123L63.5897 54.496C63.4761 54.9124 63.2112 55.1206 62.7948 55.1206H57.1735ZM98.3412 20.3708C98.3034 20.5601 98.2088 20.7304 98.0573 20.8819C97.9438 20.9954 97.7924 21.0522 97.6031 21.0522H85.6792C85.4899 21.0522 85.3952 21.1468 85.3952 21.3361L84.0325 32.0677C84.0325 32.2569 84.1271 32.3516 84.3164 32.3516H91.3572C91.5465 32.3516 91.6979 32.4273 91.8115 32.5787C91.925 32.6922 91.9629 32.8437 91.925 33.0329L91.3572 37.405C91.3572 37.5943 91.2815 37.7646 91.1301 37.9161C90.9787 38.0296 90.8083 38.0864 90.6191 38.0864H83.5783C83.389 38.0864 83.2944 38.181 83.2944 38.3703L81.9316 49.1586C81.9316 49.3479 82.0263 49.4425 82.2155 49.4425H94.0827C94.272 49.4425 94.4234 49.5182 94.5369 49.6697C94.6505 49.7832 94.6883 49.9346 94.6505 50.1239L94.1395 54.4392C94.1016 54.6285 94.007 54.7988 93.8556 54.9503C93.742 55.0638 93.5906 55.1206 93.4013 55.1206H75.5154C75.099 55.1206 74.8908 54.8935 74.8908 54.4392L79.6036 16.0555C79.6415 15.8662 79.7361 15.7148 79.8875 15.6013C80.0389 15.4498 80.2093 15.3741 80.3985 15.3741H98.2845C98.4737 15.3741 98.6251 15.4498 98.7387 15.6013C98.8523 15.7148 98.8901 15.8662 98.8523 16.0555L98.3412 20.3708ZM118.094 16.0555C118.132 15.8662 118.207 15.7148 118.321 15.6013C118.472 15.4498 118.643 15.3741 118.832 15.3741H123.829C124.018 15.3741 124.169 15.4498 124.283 15.6013C124.396 15.7148 124.434 15.8662 124.396 16.0555L119.684 54.4392C119.684 54.6285 119.608 54.7988 119.457 54.9503C119.305 55.0638 119.135 55.1206 118.946 55.1206H113.211C112.832 55.1206 112.605 54.9313 112.529 54.5528L107.305 30.4778C107.268 30.3642 107.192 30.3264 107.078 30.3642C107.003 30.3642 106.965 30.421 106.965 30.5346L104.069 54.4392C104.031 54.6285 103.936 54.7988 103.785 54.9503C103.672 55.0638 103.52 55.1206 103.331 55.1206H98.3341C97.9177 55.1206 97.7095 54.8935 97.7095 54.4392L102.422 16.0555C102.46 15.8662 102.555 15.7148 102.706 15.6013C102.858 15.4498 103.028 15.3741 103.217 15.3741H108.839C109.217 15.3741 109.444 15.5634 109.52 15.9419L114.857 39.8466C114.857 39.9602 114.895 40.0169 114.971 40.0169C115.084 39.9791 115.16 39.9034 115.198 39.7898L118.094 16.0555ZM149.107 15.3741C149.296 15.3741 149.447 15.4498 149.561 15.6013C149.675 15.7148 149.712 15.8662 149.675 16.0555L149.163 20.3708C149.126 20.5601 149.031 20.7304 148.88 20.8819C148.766 20.9954 148.615 21.0522 148.425 21.0522H141.441C141.29 21.0522 141.176 21.1468 141.101 21.3361L137.069 54.4392C137.031 54.6285 136.937 54.7988 136.785 54.9503C136.672 55.0638 136.52 55.1206 136.331 55.1206H131.221C131.032 55.1206 130.88 55.0638 130.767 54.9503C130.653 54.7988 130.615 54.6285 130.653 54.4392L134.741 21.3361C134.741 21.1468 134.647 21.0522 134.457 21.0522H127.871C127.681 21.0522 127.53 20.9954 127.416 20.8819C127.303 20.7304 127.265 20.5601 127.303 20.3708L127.814 16.0555C127.852 15.8662 127.928 15.7148 128.041 15.6013C128.192 15.4498 128.363 15.3741 128.552 15.3741H149.107ZM158.388 55.5749C155.586 55.5749 153.372 54.7231 151.744 53.0197C150.117 51.3163 149.303 49.0072 149.303 46.0925C149.303 45.6761 149.341 45.0136 149.416 44.1052L152.88 16.0555C152.88 15.8662 152.956 15.7148 153.107 15.6013C153.258 15.4498 153.429 15.3741 153.618 15.3741H158.672C158.861 15.3741 159.012 15.4498 159.126 15.6013C159.239 15.7148 159.277 15.8662 159.239 16.0555L155.719 44.7865C155.681 45.0136 155.662 45.3543 155.662 45.8086C155.662 47.0578 155.965 48.0609 156.571 48.818C157.214 49.5372 158.066 49.8968 159.126 49.8968C160.299 49.8968 161.321 49.4236 162.192 48.4773C163.063 47.5309 163.593 46.3007 163.782 44.7865L167.302 16.0555C167.34 15.8662 167.416 15.7148 167.529 15.6013C167.681 15.4498 167.851 15.3741 168.04 15.3741H173.094C173.283 15.3741 173.435 15.4498 173.548 15.6013C173.662 15.7148 173.7 15.8662 173.662 16.0555L170.255 44.1052C169.838 47.5499 168.532 50.3321 166.337 52.4519C164.179 54.5339 161.53 55.5749 158.388 55.5749ZM188.758 55.1206C188.379 55.1206 188.152 54.9313 188.076 54.5528L185.408 38.2567C185.408 38.2189 185.389 38.181 185.351 38.1432C185.313 38.0675 185.256 38.0296 185.181 38.0296H182.228C182.039 38.0296 181.944 38.1243 181.944 38.3135L179.957 54.4392C179.919 54.6285 179.824 54.7988 179.673 54.9503C179.559 55.0638 179.408 55.1206 179.219 55.1206H174.165C173.749 55.1206 173.541 54.8935 173.541 54.4392L178.253 16.0555C178.291 15.8662 178.386 15.7148 178.537 15.6013C178.689 15.4498 178.859 15.3741 179.048 15.3741H189.382C192.032 15.3741 194.114 16.2637 195.628 18.0428C197.18 19.7841 197.956 22.1121 197.956 25.0269C197.956 25.4054 197.918 26.0489 197.843 26.9574C197.54 29.3043 196.84 31.3295 195.742 33.0329C194.644 34.7363 193.262 36.0234 191.597 36.894C191.445 36.9319 191.37 37.0454 191.37 37.2347L194.663 54.3257V54.5528C194.663 54.9313 194.455 55.1206 194.038 55.1206H188.758ZM184.329 21.0522C184.14 21.0522 184.045 21.1468 184.045 21.3361L182.625 32.6355C182.625 32.8247 182.701 32.9194 182.853 32.9194H186.259C187.736 32.9194 188.966 32.2759 189.95 30.9888C190.972 29.6639 191.483 27.9227 191.483 25.765C191.483 24.2887 191.143 23.1342 190.461 22.3014C189.78 21.4686 188.852 21.0522 187.679 21.0522H184.329ZM213.858 55.1206C213.442 55.1206 213.233 54.9124 213.233 54.496L212.949 48.534C212.949 48.3448 212.836 48.2501 212.609 48.2501H204.603C204.413 48.2501 204.281 48.3448 204.205 48.534L202.445 54.496C202.331 54.9124 202.067 55.1206 201.65 55.1206H196.653C196.161 55.1206 195.991 54.8746 196.142 54.3825L208.975 15.9987C209.088 15.5823 209.353 15.3741 209.77 15.3741H215.618C216.035 15.3741 216.243 15.5823 216.243 15.9987L219.706 54.3825V54.496C219.706 54.9124 219.479 55.1206 219.025 55.1206H213.858ZM205.909 42.7992C205.871 42.9885 205.965 43.0831 206.193 43.0831H212.268C212.495 43.0831 212.609 42.9885 212.609 42.7992L211.587 24.8565C211.587 24.7429 211.549 24.6862 211.473 24.6862C211.397 24.6862 211.322 24.7429 211.246 24.8565L205.909 42.7992Z" fill="#232C2E"/>
<g clip-path="url(#clip0_39_7)">
<path fill-rule="evenodd" clip-rule="evenodd" d="M276.157 49.2714C276.018 47.5872 275.887 45.8758 275.748 44.1916C273.286 42.4374 270.851 41.1023 268.464 40.427C268.603 42.1112 268.722 43.7605 268.861 45.4447C271.248 46.1201 273.675 47.4823 276.157 49.2714ZM231.732 13.9967L232.208 19.9768C234.514 20.8349 236.852 22.2013 239.258 24.4681L239.651 29.6023C237.245 27.3355 234.907 25.9691 232.601 25.111L232.994 30.2453C235.3 31.1033 237.638 32.4698 240.044 34.7365L240.437 39.8708C238.024 37.6312 235.694 36.2375 233.387 35.3795L237.822 92.298L234.377 91.3234L228.287 13.022C225.902 11.4074 227.498 7.63236 229.64 8.23852C232.521 8.52586 234.208 13.7513 231.747 13.9423L231.732 13.9967ZM261.926 46.2438C261.787 44.5596 261.675 42.8831 261.536 41.1989C259.256 41.9051 257 42.7354 254.717 43.5581C254.848 45.2695 254.986 46.9537 255.117 48.6651C257.381 47.8076 259.638 46.9772 261.926 46.2438ZM248.21 49.6776L247.817 44.5434C245.421 43.6895 242.975 42.2924 240.476 39.9405L240.869 45.0747C243.395 47.4343 245.815 48.8237 248.21 49.6776ZM238.837 19.3262C241.336 21.6781 243.783 23.0752 246.178 23.9291C246.309 25.6405 246.44 27.3519 246.563 29.0905C244.168 28.2366 241.722 26.8395 239.223 24.4876C239.092 22.7762 238.961 21.0648 238.837 19.3262ZM253.121 23.1028C255.401 22.3966 257.661 21.6555 259.945 21.0386C260.084 22.7228 260.195 24.3993 260.334 26.0836C258.043 26.7277 255.782 27.4687 253.522 28.2098C253.391 26.4984 253.252 24.8142 253.121 23.1028ZM266.904 20.3636C269.279 20.9769 271.69 22.1878 274.157 23.8256C274.295 25.5098 274.427 27.2212 274.565 28.9054C272.114 27.2133 269.676 25.9947 267.308 25.3542C267.169 23.67 267.05 22.0206 266.911 20.3364L266.904 20.3636ZM283.156 49.4891L282.771 44.3277C280.336 42.9926 277.838 41.0522 275.375 39.0923C275.513 40.7765 275.645 42.4879 275.783 44.1721C278.266 46.1669 280.764 48.1073 283.191 49.4696L283.156 49.4891ZM282.35 39.1858L281.965 34.0244C279.522 32.7165 277.036 30.8382 274.565 28.9054C274.704 30.5896 274.835 32.301 274.974 33.9852C277.472 35.9257 279.923 37.8235 282.385 39.1663L282.35 39.1858ZM274.939 34.0048C272.469 32.2777 270.038 31.0319 267.67 30.3915C267.809 32.0757 267.928 33.725 268.067 35.4092C270.462 36.0574 272.877 37.3576 275.348 39.0846C275.209 37.4004 275.078 35.689 274.939 34.0048ZM268.04 35.4015C265.708 35.3587 263.4 35.6458 261.12 36.1463C261.259 37.8305 261.37 39.507 261.509 41.1912C263.797 40.6636 266.105 40.3765 268.437 40.4193C268.298 38.7351 268.179 37.0857 268.04 35.4015ZM267.273 25.3737C264.942 25.3309 262.642 25.5908 260.334 26.0836C260.473 27.7678 260.585 29.4443 260.723 31.1285C263.004 30.628 265.331 30.3759 267.662 30.4187C267.524 28.7344 267.404 27.0851 267.266 25.4009L267.273 25.3737ZM260.731 31.1013C258.459 31.7803 256.163 32.5409 253.895 33.3092C254.026 35.0206 254.165 36.7048 254.296 38.4162C256.572 37.6207 258.848 36.8253 261.12 36.1463C260.981 34.4621 260.87 32.7855 260.731 31.1013ZM254.296 38.4162C252.024 39.0952 249.732 39.5336 247.385 39.3394C247.516 41.0508 247.639 42.7894 247.77 44.5009C250.125 44.6678 252.417 44.2294 254.697 43.5232C254.566 41.8118 254.427 40.1276 254.296 38.4162ZM253.494 28.2021C251.203 28.8463 248.926 29.2303 246.571 29.0633C246.702 30.7747 246.833 32.4861 246.957 34.2247C249.312 34.3917 251.588 34.0077 253.888 33.3364C253.757 31.625 253.618 29.9407 253.487 28.2293L253.494 28.2021ZM246.964 34.1975C244.569 33.3437 242.122 31.9465 239.624 29.5946L240.017 34.7289C242.543 37.0884 244.962 38.4779 247.357 39.3318L246.964 34.1975Z" fill="#DF1D1D"/>
</g>
<g filter="url(#filter0_i_39_7)">
<path d="M336.185 27.6383H328.644C328.429 26.4016 328.032 25.306 327.454 24.3516C326.876 23.3838 326.157 22.5638 325.297 21.8917C324.436 21.2196 323.455 20.7155 322.353 20.3794C321.264 20.0299 320.088 19.8552 318.824 19.8552C316.579 19.8552 314.59 20.4198 312.856 21.5489C311.122 22.6646 309.764 24.3046 308.783 26.4688C307.801 28.6196 307.311 31.2475 307.311 34.3527C307.311 37.5116 307.801 40.1732 308.783 42.3374C309.777 44.4881 311.135 46.1147 312.856 47.2169C314.59 48.3058 316.573 48.8502 318.804 48.8502C320.041 48.8502 321.197 48.6889 322.272 48.3662C323.361 48.0302 324.335 47.5395 325.196 46.8943C326.069 46.2491 326.802 45.456 327.394 44.515C327.998 43.5741 328.415 42.4987 328.644 41.2889L336.185 41.3292C335.903 43.2918 335.291 45.1334 334.35 46.854C333.422 48.5746 332.206 50.0936 330.7 51.4109C329.195 52.7148 327.434 53.7364 325.418 54.4758C323.401 55.2016 321.163 55.5646 318.703 55.5646C315.074 55.5646 311.834 54.7244 308.984 53.0442C306.135 51.3639 303.89 48.9375 302.25 45.7652C300.61 42.5928 299.79 38.7886 299.79 34.3527C299.79 29.9033 300.617 26.0991 302.27 22.9402C303.923 19.7678 306.175 17.3415 309.025 15.6612C311.874 13.9809 315.101 13.1408 318.703 13.1408C321.002 13.1408 323.139 13.4634 325.115 14.1086C327.091 14.7539 328.852 15.7015 330.398 16.9517C331.944 18.1884 333.214 19.7073 334.209 21.5086C335.217 23.2964 335.876 25.3396 336.185 27.6383ZM347.708 36.8529V55H340.408V13.7054H347.546V29.2917H347.909C348.635 27.5442 349.757 26.1663 351.276 25.1582C352.809 24.1366 354.758 23.6258 357.124 23.6258C359.275 23.6258 361.15 24.0761 362.749 24.9767C364.349 25.8773 365.586 27.1947 366.459 28.9287C367.347 30.6628 367.79 32.7799 367.79 35.2802V55H360.491V36.4093C360.491 34.3258 359.953 32.706 358.878 31.55C357.816 30.3805 356.324 29.7958 354.402 29.7958C353.111 29.7958 351.955 30.078 350.934 30.6426C349.925 31.1937 349.132 31.9936 348.554 33.0421C347.99 34.0906 347.708 35.3608 347.708 36.8529ZM381.838 55.6251C379.876 55.6251 378.108 55.2756 376.535 54.5766C374.976 53.8641 373.739 52.8156 372.825 51.4311C371.925 50.0465 371.474 48.3394 371.474 46.3096C371.474 44.5621 371.797 43.117 372.442 41.9744C373.088 40.8319 373.968 39.9178 375.084 39.2322C376.199 38.5467 377.456 38.0291 378.854 37.6796C380.266 37.3167 381.724 37.0546 383.23 36.8933C385.044 36.7051 386.516 36.537 387.646 36.3892C388.775 36.2279 389.595 35.9859 390.105 35.6633C390.63 35.3272 390.892 34.8097 390.892 34.1107V33.9897C390.892 32.4708 390.442 31.2946 389.541 30.4611C388.64 29.6277 387.343 29.211 385.649 29.211C383.862 29.211 382.443 29.6008 381.395 30.3805C380.36 31.1601 379.661 32.0809 379.298 33.1429L372.483 32.175C373.02 30.2931 373.908 28.7204 375.144 27.4568C376.381 26.1798 377.893 25.2254 379.681 24.5936C381.469 23.9484 383.445 23.6258 385.609 23.6258C387.101 23.6258 388.586 23.8005 390.065 24.15C391.544 24.4995 392.895 25.0775 394.118 25.884C395.341 26.6771 396.323 27.7592 397.062 29.1304C397.815 30.5015 398.191 32.2154 398.191 34.272V55H391.174V50.7455H390.932C390.489 51.6058 389.863 52.4124 389.057 53.1651C388.264 53.9045 387.262 54.5026 386.053 54.9597C384.856 55.4033 383.452 55.6251 381.838 55.6251ZM383.734 50.2616C385.199 50.2616 386.469 49.9726 387.545 49.3946C388.62 48.8031 389.447 48.0235 390.025 47.0556C390.616 46.0878 390.912 45.0326 390.912 43.89V40.2404C390.683 40.4286 390.294 40.6033 389.743 40.7646C389.205 40.9259 388.6 41.0671 387.928 41.1881C387.256 41.3091 386.59 41.4166 385.932 41.5107C385.273 41.6048 384.702 41.6854 384.218 41.7526C383.129 41.9005 382.154 42.1425 381.294 42.4785C380.434 42.8146 379.755 43.2851 379.258 43.89C378.76 44.4814 378.511 45.2476 378.511 46.1886C378.511 47.5328 379.002 48.5477 379.983 49.2333C380.965 49.9188 382.215 50.2616 383.734 50.2616ZM403.226 55V24.029H410.203V29.2917H410.566C411.211 27.5173 412.279 26.1327 413.772 25.138C415.264 24.1298 417.045 23.6258 419.115 23.6258C421.212 23.6258 422.98 24.1366 424.418 25.1582C425.87 26.1663 426.891 27.5442 427.483 29.2917H427.805C428.491 27.5711 429.647 26.1999 431.273 25.1783C432.913 24.1433 434.856 23.6258 437.101 23.6258C439.95 23.6258 442.276 24.5264 444.077 26.3276C445.878 28.1289 446.779 30.7569 446.779 34.2115V55H439.46V35.3407C439.46 33.4184 438.949 32.0137 437.927 31.1265C436.906 30.2259 435.656 29.7756 434.177 29.7756C432.416 29.7756 431.038 30.3267 430.043 31.429C429.062 32.5178 428.572 33.936 428.572 35.6835V55H421.414V35.0382C421.414 33.4386 420.93 32.1616 419.962 31.2072C419.007 30.2528 417.757 29.7756 416.211 29.7756C415.163 29.7756 414.208 30.0444 413.348 30.5821C412.488 31.1064 411.802 31.8524 411.291 32.8203C410.781 33.7747 410.525 34.8904 410.525 36.1674V55H403.226ZM451.88 66.6141V24.029H459.058V29.1505H459.481C459.858 28.3978 460.389 27.5979 461.074 26.7511C461.76 25.8908 462.687 25.1582 463.857 24.5533C465.026 23.9349 466.518 23.6258 468.333 23.6258C470.726 23.6258 472.883 24.2374 474.806 25.4606C476.741 26.6704 478.274 28.465 479.403 30.8442C480.545 33.2101 481.117 36.1136 481.117 39.5548C481.117 42.9557 480.559 45.8458 479.443 48.2251C478.327 50.6044 476.808 52.4191 474.886 53.6692C472.964 54.9193 470.786 55.5444 468.353 55.5444C466.579 55.5444 465.107 55.2487 463.937 54.6572C462.768 54.0658 461.827 53.3533 461.115 52.5199C460.416 51.673 459.871 50.8732 459.481 50.1205H459.179V66.6141H451.88ZM459.038 39.5145C459.038 41.5174 459.32 43.2716 459.885 44.7772C460.463 46.2827 461.289 47.4589 462.365 48.3058C463.454 49.1392 464.771 49.5559 466.317 49.5559C467.93 49.5559 469.281 49.1257 470.37 48.2654C471.458 47.3917 472.278 46.202 472.83 44.6965C473.394 43.1775 473.676 41.4502 473.676 39.5145C473.676 37.5923 473.401 35.8851 472.85 34.393C472.299 32.9009 471.479 31.7314 470.39 30.8846C469.301 30.0377 467.943 29.6143 466.317 29.6143C464.757 29.6143 463.433 30.0243 462.345 30.8442C461.256 31.6642 460.429 32.8135 459.864 34.2922C459.313 35.7708 459.038 37.5116 459.038 39.5145ZM485.063 55V24.029H492.362V55H485.063ZM488.733 19.6334C487.577 19.6334 486.582 19.2503 485.749 18.4841C484.915 17.7044 484.498 16.7702 484.498 15.6814C484.498 14.5791 484.915 13.6449 485.749 12.8787C486.582 12.099 487.577 11.7092 488.733 11.7092C489.902 11.7092 490.897 12.099 491.717 12.8787C492.55 13.6449 492.967 14.5791 492.967 15.6814C492.967 16.7702 492.55 17.7044 491.717 18.4841C490.897 19.2503 489.902 19.6334 488.733 19.6334ZM511.073 55.6049C508.049 55.6049 505.427 54.9395 503.209 53.6087C500.991 52.2779 499.271 50.4162 498.048 48.0235C496.838 45.6307 496.233 42.8347 496.233 39.6355C496.233 36.4362 496.838 33.6335 498.048 31.2274C499.271 28.8212 500.991 26.9527 503.209 25.6219C505.427 24.2911 508.049 23.6258 511.073 23.6258C514.098 23.6258 516.719 24.2911 518.937 25.6219C521.155 26.9527 522.869 28.8212 524.079 31.2274C525.302 33.6335 525.913 36.4362 525.913 39.6355C525.913 42.8347 525.302 45.6307 524.079 48.0235C522.869 50.4162 521.155 52.2779 518.937 53.6087C516.719 54.9395 514.098 55.6049 511.073 55.6049ZM511.113 49.7575C512.753 49.7575 514.125 49.3072 515.227 48.4066C516.329 47.4925 517.149 46.2692 517.687 44.7368C518.238 43.2044 518.513 41.4972 518.513 39.6153C518.513 37.72 518.238 36.0061 517.687 34.4737C517.149 32.9278 516.329 31.6978 515.227 30.7838C514.125 29.8697 512.753 29.4126 511.113 29.4126C509.433 29.4126 508.035 29.8697 506.919 30.7838C505.817 31.6978 504.991 32.9278 504.439 34.4737C503.902 36.0061 503.633 37.72 503.633 39.6153C503.633 41.4972 503.902 43.2044 504.439 44.7368C504.991 46.2692 505.817 47.4925 506.919 48.4066C508.035 49.3072 509.433 49.7575 511.113 49.7575ZM537.103 36.8529V55H529.804V24.029H536.781V29.2917H537.144C537.856 27.5576 538.992 26.1798 540.551 25.1582C542.124 24.1366 544.067 23.6258 546.379 23.6258C548.516 23.6258 550.378 24.0828 551.964 24.9969C553.563 25.9109 554.8 27.235 555.674 28.9691C556.561 30.7031 556.998 32.8068 556.985 35.2802V55H549.685V36.4093C549.685 34.3392 549.148 32.7194 548.072 31.55C547.01 30.3805 545.538 29.7958 543.657 29.7958C542.38 29.7958 541.244 30.078 540.249 30.6426C539.268 31.1937 538.495 31.9936 537.93 33.0421C537.379 34.0906 537.103 35.3608 537.103 36.8529ZM586.579 32.2154L579.925 32.9412C579.737 32.2691 579.407 31.6373 578.937 31.0459C578.48 30.4544 577.861 29.9772 577.082 29.6143C576.302 29.2513 575.348 29.0699 574.219 29.0699C572.7 29.0699 571.423 29.3992 570.387 30.0579C569.366 30.7165 568.862 31.5701 568.875 32.6186C568.862 33.5193 569.191 34.2519 569.863 34.8164C570.549 35.381 571.678 35.8448 573.251 36.2077L578.534 37.3369C581.464 37.9686 583.642 38.9701 585.066 40.3412C586.505 41.7123 587.231 43.5069 587.244 45.7248C587.231 47.674 586.659 49.3946 585.53 50.8867C584.414 52.3653 582.862 53.5214 580.872 54.3548C578.883 55.1882 576.598 55.6049 574.017 55.6049C570.226 55.6049 567.175 54.8118 564.863 53.2256C562.551 51.626 561.173 49.4013 560.729 46.5515L567.847 45.866C568.17 47.264 568.855 48.3192 569.904 49.0316C570.952 49.7441 572.316 50.1003 573.997 50.1003C575.731 50.1003 577.122 49.7441 578.171 49.0316C579.233 48.3192 579.763 47.4387 579.763 46.3902C579.763 45.503 579.421 44.7704 578.735 44.1924C578.063 43.6144 577.015 43.1708 575.59 42.8616L570.307 41.7526C567.336 41.1343 565.138 40.0925 563.713 38.6273C562.289 37.1487 561.583 35.2802 561.596 33.0219C561.583 31.1131 562.1 29.4597 563.149 28.0617C564.211 26.6503 565.683 25.5614 567.565 24.7952C569.46 24.0156 571.644 23.6258 574.118 23.6258C577.747 23.6258 580.604 24.3987 582.687 25.9445C584.784 27.4904 586.081 29.5807 586.579 32.2154Z" fill="#E2E5EC"/>
</g>
<defs>
<filter id="filter0_i_39_7" x="299.79" y="11.7092" width="287.454" height="54.9049" filterUnits="userSpaceOnUse" color-interpolation-filters="sRGB">
<feFlood flood-opacity="0" result="BackgroundImageFix"/>
<feBlend mode="normal" in="SourceGraphic" in2="BackgroundImageFix" result="shape"/>
<feColorMatrix in="SourceAlpha" type="matrix" values="0 0 0 0 0 0 0 0 0 0 0 0 0 0 0 0 0 0 127 0" result="hardAlpha"/>
<feOffset/>
<feGaussianBlur stdDeviation="0.815236"/>
<feComposite in2="hardAlpha" operator="arithmetic" k2="-1" k3="1"/>
<feColorMatrix type="matrix" values="0 0 0 0 0 0 0 0 0 0 0 0 0 0 0 0 0 0 0.05 0"/>
<feBlend mode="normal" in2="shape" result="effect1_innerShadow_39_7"/>
</filter>
<clipPath id="clip0_39_7">
<rect width="65.9945" height="40.612" fill="white" transform="translate(226.659 6.86743) rotate(15.797)"/>
</clipPath>
</defs>
</svg>
