<svg width="58" height="58" viewBox="0 0 58 58" fill="none" xmlns="http://www.w3.org/2000/svg">
<path d="M53.0496 11.2352C52.8044 10.8472 52.4649 10.5275 52.0628 10.306C51.6607 10.0846 51.209 9.96854 50.75 9.96875H7.25C6.70198 9.96848 6.16668 10.1338 5.71428 10.4431C5.26189 10.7524 4.91352 11.1912 4.71485 11.7019C4.51619 12.2127 4.47651 12.7715 4.60102 13.3052C4.72553 13.8389 5.00841 14.3225 5.41257 14.6926L14.2734 22.8171L5.25171 32.5933C4.89319 32.9816 4.65563 33.4661 4.56811 33.9873C4.48059 34.5085 4.5469 35.044 4.75892 35.5281C4.97095 36.0123 5.31949 36.4241 5.76192 36.7133C6.20434 37.0024 6.72146 37.1564 7.25 37.1562H36.0869L30.1713 49.5809C30.0074 49.9044 29.9099 50.2574 29.8844 50.6191C29.859 50.9808 29.9062 51.3439 30.0232 51.6871C30.1402 52.0303 30.3247 52.3467 30.5658 52.6175C30.8069 52.8884 31.0997 53.1082 31.4271 53.2642C31.7544 53.4202 32.1097 53.5091 32.4719 53.5257C32.8341 53.5423 33.196 53.4863 33.5363 53.361C33.8765 53.2356 34.1883 53.0435 34.4532 52.7959C34.718 52.5482 34.9307 52.2501 35.0787 51.9191L53.2037 13.8566C53.4014 13.4422 53.491 12.9844 53.4641 12.5261C53.4371 12.0677 53.2945 11.6236 53.0496 11.2352ZM38.6765 31.7188H13.4601L20.1233 24.5005C20.3665 24.2374 20.5553 23.929 20.6789 23.5927C20.8025 23.2565 20.8584 22.8992 20.8435 22.5412C20.8285 22.1833 20.743 21.8319 20.5918 21.5072C20.4406 21.1824 20.2267 20.8907 19.9624 20.6489L14.2394 15.4063H46.4453L38.6765 31.7188Z" fill="#E2E5EC"/>
</svg>
